  0
SECTION
  2
HEADER
  9
$ACADVER
  1
AC1009
  9
$FILLMODE
 70
 0
  9
$SPLFRAME
 70
 1
  9
$EXTMIN
 10
0
 20
0
 30
0.0
  9
$EXTMAX
 10
1058.33
 20
1058.33
 30
0.0
  0
ENDSEC
  0
SECTION
  2
TABLES
  0
TABLE
  2
LAYER
 70
1
  0
LAYER
  2
0
 70
     0
 62
     7
  6
CONTINUOUS
  0
ENDTAB
  0
ENDSEC
  0
SECTION
  2
ENTITIES
  0
LINE
  8
0
 62
     0
 10
0.0950846
 20
76.4575
 30
0.0
 11
228.695
 21
76.4575
 31
0.0
  0
LINE
  8
0
 62
     0
 10
228.695
 20
76.4575
 30
0.0
 11
228.695
 21
0.257693
 31
0.0
  0
LINE
  8
0
 62
     0
 10
228.695
 20
0.257693
 30
0.0
 11
0.0950846
 21
0.257693
 31
0.0
  0
LINE
  8
0
 62
     0
 10
0.0950846
 20
0.257693
 30
0.0
 11
0.0950846
 21
76.4575
 31
0.0
  0
LINE
  8
0
 62
     0
 10
114.537
 20
16.7831
 30
0.0
 11
114.537
 21
12.0826
 31
0.0
  0
LINE
  8
0
 62
     0
 10
114.537
 20
12.0826
 30
0.0
 11
113.013
 21
12.0826
 31
0.0
  0
LINE
  8
0
 62
     0
 10
113.013
 20
12.0826
 30
0.0
 11
113.013
 21
15.3128
 31
0.0
  0
LINE
  8
0
 62
     0
 10
113.013
 20
15.3128
 30
0.0
 11
106.262
 21
15.3128
 31
0.0
  0
LINE
  8
0
 62
     0
 10
106.262
 20
15.3128
 30
0.0
 11
106.262
 21
12.0826
 31
0.0
  0
LINE
  8
0
 62
     0
 10
106.262
 20
12.0826
 30
0.0
 11
105.438
 21
12.0826
 31
0.0
  0
LINE
  8
0
 62
     0
 10
105.438
 20
12.0826
 30
0.0
 11
105.438
 21
9.28384
 31
0.0
  0
LINE
  8
0
 62
     0
 10
105.438
 20
9.28384
 30
0.0
 11
106.262
 21
9.28384
 31
0.0
  0
LINE
  8
0
 62
     0
 10
106.262
 20
9.28384
 30
0.0
 11
106.262
 21
3.01377
 31
0.0
  0
LINE
  8
0
 62
     0
 10
106.262
 20
3.01377
 30
0.0
 11
107.987
 21
3.01377
 31
0.0
  0
LINE
  8
0
 62
     0
 10
107.987
 20
3.01377
 30
0.0
 11
107.987
 21
1.8135
 31
0.0
  0
LINE
  8
0
 62
     0
 10
107.987
 20
1.8135
 30
0.0
 11
111.288
 21
1.8135
 31
0.0
  0
LINE
  8
0
 62
     0
 10
111.288
 20
1.8135
 30
0.0
 11
111.288
 21
3.01377
 31
0.0
  0
LINE
  8
0
 62
     0
 10
111.288
 20
3.01377
 30
0.0
 11
113.013
 21
3.01377
 31
0.0
  0
LINE
  8
0
 62
     0
 10
113.013
 20
3.01377
 30
0.0
 11
113.013
 21
7.48273
 31
0.0
  0
LINE
  8
0
 62
     0
 10
113.013
 20
7.48273
 30
0.0
 11
114.537
 21
7.48273
 31
0.0
  0
LINE
  8
0
 62
     0
 10
114.537
 20
7.48273
 30
0.0
 11
114.537
 21
2.78364
 31
0.0
  0
LINE
  8
0
 62
     0
 10
114.537
 20
2.78364
 30
0.0
 11
128.538
 21
2.78364
 31
0.0
  0
LINE
  8
0
 62
     0
 10
128.538
 20
2.78364
 30
0.0
 11
128.538
 21
7.48273
 31
0.0
  0
LINE
  8
0
 62
     0
 10
128.538
 20
7.48273
 30
0.0
 11
130.062
 21
7.48273
 31
0.0
  0
LINE
  8
0
 62
     0
 10
130.062
 20
7.48273
 30
0.0
 11
130.062
 21
3.01377
 31
0.0
  0
LINE
  8
0
 62
     0
 10
130.062
 20
3.01377
 30
0.0
 11
131.787
 21
3.01377
 31
0.0
  0
LINE
  8
0
 62
     0
 10
131.787
 20
3.01377
 30
0.0
 11
131.787
 21
1.8135
 31
0.0
  0
LINE
  8
0
 62
     0
 10
131.787
 20
1.8135
 30
0.0
 11
135.088
 21
1.8135
 31
0.0
  0
LINE
  8
0
 62
     0
 10
135.088
 20
1.8135
 30
0.0
 11
135.088
 21
3.01377
 31
0.0
  0
LINE
  8
0
 62
     0
 10
135.088
 20
3.01377
 30
0.0
 11
136.813
 21
3.01377
 31
0.0
  0
LINE
  8
0
 62
     0
 10
136.813
 20
3.01377
 30
0.0
 11
136.813
 21
9.28384
 31
0.0
  0
LINE
  8
0
 62
     0
 10
136.813
 20
9.28384
 30
0.0
 11
137.637
 21
9.28384
 31
0.0
  0
LINE
  8
0
 62
     0
 10
137.637
 20
9.28384
 30
0.0
 11
137.637
 21
12.0826
 31
0.0
  0
LINE
  8
0
 62
     0
 10
137.637
 20
12.0826
 30
0.0
 11
136.813
 21
12.0826
 31
0.0
  0
LINE
  8
0
 62
     0
 10
136.813
 20
12.0826
 30
0.0
 11
136.813
 21
15.3128
 31
0.0
  0
LINE
  8
0
 62
     0
 10
136.813
 20
15.3128
 30
0.0
 11
130.062
 21
15.3128
 31
0.0
  0
LINE
  8
0
 62
     0
 10
130.062
 20
15.3128
 30
0.0
 11
130.062
 21
12.0826
 31
0.0
  0
LINE
  8
0
 62
     0
 10
130.062
 20
12.0826
 30
0.0
 11
128.538
 21
12.0826
 31
0.0
  0
LINE
  8
0
 62
     0
 10
128.538
 20
12.0826
 30
0.0
 11
128.538
 21
16.7831
 31
0.0
  0
LINE
  8
0
 62
     0
 10
128.538
 20
16.7831
 30
0.0
 11
114.537
 21
16.7831
 31
0.0
  0
LINE
  8
0
 62
     0
 10
5.00091
 20
16.7831
 30
0.0
 11
19.0004
 21
16.7831
 31
0.0
  0
LINE
  8
0
 62
     0
 10
19.0004
 20
16.7831
 30
0.0
 11
19.0004
 21
2.78364
 31
0.0
  0
LINE
  8
0
 62
     0
 10
19.0004
 20
2.78364
 30
0.0
 11
5.00091
 21
2.78364
 31
0.0
  0
LINE
  8
0
 62
     0
 10
5.00091
 20
2.78364
 30
0.0
 11
5.00091
 21
16.7831
 31
0.0
  0
LINE
  8
0
 62
     0
 10
28.812
 20
16.7831
 30
0.0
 11
42.8128
 21
16.7831
 31
0.0
  0
LINE
  8
0
 62
     0
 10
42.8128
 20
16.7831
 30
0.0
 11
42.8128
 21
2.78364
 31
0.0
  0
LINE
  8
0
 62
     0
 10
42.8128
 20
2.78364
 30
0.0
 11
28.812
 21
2.78364
 31
0.0
  0
LINE
  8
0
 62
     0
 10
28.812
 20
2.78364
 30
0.0
 11
28.812
 21
16.7831
 31
0.0
  0
LINE
  8
0
 62
     0
 10
52.626
 20
16.7831
 30
0.0
 11
66.6253
 21
16.7831
 31
0.0
  0
LINE
  8
0
 62
     0
 10
66.6253
 20
16.7831
 30
0.0
 11
66.6253
 21
2.78364
 31
0.0
  0
LINE
  8
0
 62
     0
 10
66.6253
 20
2.78364
 30
0.0
 11
52.626
 21
2.78364
 31
0.0
  0
LINE
  8
0
 62
     0
 10
52.626
 20
2.78364
 30
0.0
 11
52.626
 21
16.7831
 31
0.0
  0
LINE
  8
0
 62
     0
 10
76.4371
 20
16.7831
 30
0.0
 11
90.4378
 21
16.7831
 31
0.0
  0
LINE
  8
0
 62
     0
 10
90.4378
 20
16.7831
 30
0.0
 11
90.4378
 21
2.78364
 31
0.0
  0
LINE
  8
0
 62
     0
 10
90.4378
 20
2.78364
 30
0.0
 11
76.4371
 21
2.78364
 31
0.0
  0
LINE
  8
0
 62
     0
 10
76.4371
 20
2.78364
 30
0.0
 11
76.4371
 21
16.7831
 31
0.0
  0
LINE
  8
0
 62
     0
 10
152.637
 20
16.7831
 30
0.0
 11
166.638
 21
16.7831
 31
0.0
  0
LINE
  8
0
 62
     0
 10
166.638
 20
16.7831
 30
0.0
 11
166.638
 21
2.78364
 31
0.0
  0
LINE
  8
0
 62
     0
 10
166.638
 20
2.78364
 30
0.0
 11
152.637
 21
2.78364
 31
0.0
  0
LINE
  8
0
 62
     0
 10
152.637
 20
2.78364
 30
0.0
 11
152.637
 21
16.7831
 31
0.0
  0
LINE
  8
0
 62
     0
 10
174.07
 20
16.7831
 30
0.0
 11
188.069
 21
16.7831
 31
0.0
  0
LINE
  8
0
 62
     0
 10
188.069
 20
16.7831
 30
0.0
 11
188.069
 21
2.78364
 31
0.0
  0
LINE
  8
0
 62
     0
 10
188.069
 20
2.78364
 30
0.0
 11
174.07
 21
2.78364
 31
0.0
  0
LINE
  8
0
 62
     0
 10
174.07
 20
2.78364
 30
0.0
 11
174.07
 21
16.7831
 31
0.0
  0
LINE
  8
0
 62
     0
 10
193.12
 20
16.7831
 30
0.0
 11
207.119
 21
16.7831
 31
0.0
  0
LINE
  8
0
 62
     0
 10
207.119
 20
16.7831
 30
0.0
 11
207.119
 21
2.78364
 31
0.0
  0
LINE
  8
0
 62
     0
 10
207.119
 20
2.78364
 30
0.0
 11
193.12
 21
2.78364
 31
0.0
  0
LINE
  8
0
 62
     0
 10
193.12
 20
2.78364
 30
0.0
 11
193.12
 21
16.7831
 31
0.0
  0
LINE
  8
0
 62
     0
 10
212.17
 20
16.7831
 30
0.0
 11
226.169
 21
16.7831
 31
0.0
  0
LINE
  8
0
 62
     0
 10
226.169
 20
16.7831
 30
0.0
 11
226.169
 21
2.78364
 31
0.0
  0
LINE
  8
0
 62
     0
 10
226.169
 20
2.78364
 30
0.0
 11
212.17
 21
2.78364
 31
0.0
  0
LINE
  8
0
 62
     0
 10
212.17
 20
2.78364
 30
0.0
 11
212.17
 21
16.7831
 31
0.0
  0
LINE
  8
0
 62
     0
 10
12.1447
 20
35.833
 30
0.0
 11
12.1447
 21
31.1326
 31
0.0
  0
LINE
  8
0
 62
     0
 10
12.1447
 20
31.1326
 30
0.0
 11
10.6192
 21
31.1326
 31
0.0
  0
LINE
  8
0
 62
     0
 10
10.6192
 20
31.1326
 30
0.0
 11
10.6192
 21
34.3628
 31
0.0
  0
LINE
  8
0
 62
     0
 10
10.6192
 20
34.3628
 30
0.0
 11
3.86955
 21
34.3628
 31
0.0
  0
LINE
  8
0
 62
     0
 10
3.86955
 20
34.3628
 30
0.0
 11
3.86955
 21
31.1326
 31
0.0
  0
LINE
  8
0
 62
     0
 10
3.86955
 20
31.1326
 30
0.0
 11
3.04409
 21
31.1326
 31
0.0
  0
LINE
  8
0
 62
     0
 10
3.04409
 20
31.1326
 30
0.0
 11
3.04409
 21
28.3338
 31
0.0
  0
LINE
  8
0
 62
     0
 10
3.04409
 20
28.3338
 30
0.0
 11
3.86955
 21
28.3338
 31
0.0
  0
LINE
  8
0
 62
     0
 10
3.86955
 20
28.3338
 30
0.0
 11
3.86955
 21
22.0638
 31
0.0
  0
LINE
  8
0
 62
     0
 10
3.86955
 20
22.0638
 30
0.0
 11
5.59484
 21
22.0638
 31
0.0
  0
LINE
  8
0
 62
     0
 10
5.59484
 20
22.0638
 30
0.0
 11
5.59484
 21
20.8635
 31
0.0
  0
LINE
  8
0
 62
     0
 10
5.59484
 20
20.8635
 30
0.0
 11
8.89385
 21
20.8635
 31
0.0
  0
LINE
  8
0
 62
     0
 10
8.89385
 20
20.8635
 30
0.0
 11
8.89385
 21
22.0638
 31
0.0
  0
LINE
  8
0
 62
     0
 10
8.89385
 20
22.0638
 30
0.0
 11
10.6192
 21
22.0638
 31
0.0
  0
LINE
  8
0
 62
     0
 10
10.6192
 20
22.0638
 30
0.0
 11
10.6192
 21
26.5327
 31
0.0
  0
LINE
  8
0
 62
     0
 10
10.6192
 20
26.5327
 30
0.0
 11
12.1447
 21
26.5327
 31
0.0
  0
LINE
  8
0
 62
     0
 10
12.1447
 20
26.5327
 30
0.0
 11
12.1447
 21
21.8336
 31
0.0
  0
LINE
  8
0
 62
     0
 10
12.1447
 20
21.8336
 30
0.0
 11
26.1441
 21
21.8336
 31
0.0
  0
LINE
  8
0
 62
     0
 10
26.1441
 20
21.8336
 30
0.0
 11
26.1441
 21
26.5327
 31
0.0
  0
LINE
  8
0
 62
     0
 10
26.1441
 20
26.5327
 30
0.0
 11
27.6696
 21
26.5327
 31
0.0
  0
LINE
  8
0
 62
     0
 10
27.6696
 20
26.5327
 30
0.0
 11
27.6696
 21
22.0638
 31
0.0
  0
LINE
  8
0
 62
     0
 10
27.6696
 20
22.0638
 30
0.0
 11
29.3949
 21
22.0638
 31
0.0
  0
LINE
  8
0
 62
     0
 10
29.3949
 20
22.0638
 30
0.0
 11
29.3949
 21
20.8635
 31
0.0
  0
LINE
  8
0
 62
     0
 10
29.3949
 20
20.8635
 30
0.0
 11
32.694
 21
20.8635
 31
0.0
  0
LINE
  8
0
 62
     0
 10
32.694
 20
20.8635
 30
0.0
 11
32.694
 21
22.0638
 31
0.0
  0
LINE
  8
0
 62
     0
 10
32.694
 20
22.0638
 30
0.0
 11
34.4193
 21
22.0638
 31
0.0
  0
LINE
  8
0
 62
     0
 10
34.4193
 20
22.0638
 30
0.0
 11
34.4193
 21
28.3338
 31
0.0
  0
LINE
  8
0
 62
     0
 10
34.4193
 20
28.3338
 30
0.0
 11
35.2447
 21
28.3338
 31
0.0
  0
LINE
  8
0
 62
     0
 10
35.2447
 20
28.3338
 30
0.0
 11
35.2447
 21
31.1326
 31
0.0
  0
LINE
  8
0
 62
     0
 10
35.2447
 20
31.1326
 30
0.0
 11
34.4193
 21
31.1326
 31
0.0
  0
LINE
  8
0
 62
     0
 10
34.4193
 20
31.1326
 30
0.0
 11
34.4193
 21
34.3628
 31
0.0
  0
LINE
  8
0
 62
     0
 10
34.4193
 20
34.3628
 30
0.0
 11
27.6696
 21
34.3628
 31
0.0
  0
LINE
  8
0
 62
     0
 10
27.6696
 20
34.3628
 30
0.0
 11
27.6696
 21
31.1326
 31
0.0
  0
LINE
  8
0
 62
     0
 10
27.6696
 20
31.1326
 30
0.0
 11
26.1441
 21
31.1326
 31
0.0
  0
LINE
  8
0
 62
     0
 10
26.1441
 20
31.1326
 30
0.0
 11
26.1441
 21
35.833
 31
0.0
  0
LINE
  8
0
 62
     0
 10
26.1441
 20
35.833
 30
0.0
 11
12.1447
 21
35.833
 31
0.0
  0
LINE
  8
0
 62
     0
 10
40.7197
 20
35.833
 30
0.0
 11
54.719
 21
35.833
 31
0.0
  0
LINE
  8
0
 62
     0
 10
54.719
 20
35.833
 30
0.0
 11
54.719
 21
21.8336
 31
0.0
  0
LINE
  8
0
 62
     0
 10
54.719
 20
21.8336
 30
0.0
 11
40.7197
 21
21.8336
 31
0.0
  0
LINE
  8
0
 62
     0
 10
40.7197
 20
21.8336
 30
0.0
 11
40.7197
 21
35.833
 31
0.0
  0
LINE
  8
0
 62
     0
 10
59.7697
 20
35.833
 30
0.0
 11
73.769
 21
35.833
 31
0.0
  0
LINE
  8
0
 62
     0
 10
73.769
 20
35.833
 30
0.0
 11
73.769
 21
21.8336
 31
0.0
  0
LINE
  8
0
 62
     0
 10
73.769
 20
21.8336
 30
0.0
 11
59.7697
 21
21.8336
 31
0.0
  0
LINE
  8
0
 62
     0
 10
59.7697
 20
21.8336
 30
0.0
 11
59.7697
 21
35.833
 31
0.0
  0
LINE
  8
0
 62
     0
 10
78.8197
 20
35.833
 30
0.0
 11
92.819
 21
35.833
 31
0.0
  0
LINE
  8
0
 62
     0
 10
92.819
 20
35.833
 30
0.0
 11
92.819
 21
21.8336
 31
0.0
  0
LINE
  8
0
 62
     0
 10
92.819
 20
21.8336
 30
0.0
 11
78.8197
 21
21.8336
 31
0.0
  0
LINE
  8
0
 62
     0
 10
78.8197
 20
21.8336
 30
0.0
 11
78.8197
 21
35.833
 31
0.0
  0
LINE
  8
0
 62
     0
 10
97.8683
 20
35.833
 30
0.0
 11
111.869
 21
35.833
 31
0.0
  0
LINE
  8
0
 62
     0
 10
111.869
 20
35.833
 30
0.0
 11
111.869
 21
21.8336
 31
0.0
  0
LINE
  8
0
 62
     0
 10
111.869
 20
21.8336
 30
0.0
 11
97.8683
 21
21.8336
 31
0.0
  0
LINE
  8
0
 62
     0
 10
97.8683
 20
21.8336
 30
0.0
 11
97.8683
 21
35.833
 31
0.0
  0
LINE
  8
0
 62
     0
 10
116.918
 20
35.833
 30
0.0
 11
130.919
 21
35.833
 31
0.0
  0
LINE
  8
0
 62
     0
 10
130.919
 20
35.833
 30
0.0
 11
130.919
 21
21.8336
 31
0.0
  0
LINE
  8
0
 62
     0
 10
130.919
 20
21.8336
 30
0.0
 11
116.918
 21
21.8336
 31
0.0
  0
LINE
  8
0
 62
     0
 10
116.918
 20
21.8336
 30
0.0
 11
116.918
 21
35.833
 31
0.0
  0
LINE
  8
0
 62
     0
 10
135.97
 20
35.833
 30
0.0
 11
149.969
 21
35.833
 31
0.0
  0
LINE
  8
0
 62
     0
 10
149.969
 20
35.833
 30
0.0
 11
149.969
 21
21.8336
 31
0.0
  0
LINE
  8
0
 62
     0
 10
149.969
 20
21.8336
 30
0.0
 11
135.97
 21
21.8336
 31
0.0
  0
LINE
  8
0
 62
     0
 10
135.97
 20
21.8336
 30
0.0
 11
135.97
 21
35.833
 31
0.0
  0
LINE
  8
0
 62
     0
 10
155.02
 20
35.833
 30
0.0
 11
169.019
 21
35.833
 31
0.0
  0
LINE
  8
0
 62
     0
 10
169.019
 20
35.833
 30
0.0
 11
169.019
 21
21.8336
 31
0.0
  0
LINE
  8
0
 62
     0
 10
169.019
 20
21.8336
 30
0.0
 11
155.02
 21
21.8336
 31
0.0
  0
LINE
  8
0
 62
     0
 10
155.02
 20
21.8336
 30
0.0
 11
155.02
 21
35.833
 31
0.0
  0
LINE
  8
0
 62
     0
 10
174.07
 20
35.833
 30
0.0
 11
188.069
 21
35.833
 31
0.0
  0
LINE
  8
0
 62
     0
 10
188.069
 20
35.833
 30
0.0
 11
188.069
 21
21.8336
 31
0.0
  0
LINE
  8
0
 62
     0
 10
188.069
 20
21.8336
 30
0.0
 11
174.07
 21
21.8336
 31
0.0
  0
LINE
  8
0
 62
     0
 10
174.07
 20
21.8336
 30
0.0
 11
174.07
 21
35.833
 31
0.0
  0
LINE
  8
0
 62
     0
 10
193.12
 20
35.833
 30
0.0
 11
207.119
 21
35.833
 31
0.0
  0
LINE
  8
0
 62
     0
 10
207.119
 20
35.833
 30
0.0
 11
207.119
 21
21.8336
 31
0.0
  0
LINE
  8
0
 62
     0
 10
207.119
 20
21.8336
 30
0.0
 11
193.12
 21
21.8336
 31
0.0
  0
LINE
  8
0
 62
     0
 10
193.12
 20
21.8336
 30
0.0
 11
193.12
 21
35.833
 31
0.0
  0
LINE
  8
0
 62
     0
 10
212.17
 20
35.833
 30
0.0
 11
226.169
 21
35.833
 31
0.0
  0
LINE
  8
0
 62
     0
 10
226.169
 20
35.833
 30
0.0
 11
226.169
 21
21.8336
 31
0.0
  0
LINE
  8
0
 62
     0
 10
226.169
 20
21.8336
 30
0.0
 11
212.17
 21
21.8336
 31
0.0
  0
LINE
  8
0
 62
     0
 10
212.17
 20
21.8336
 30
0.0
 11
212.17
 21
35.833
 31
0.0
  0
LINE
  8
0
 62
     0
 10
7.38216
 20
54.8831
 30
0.0
 11
21.3817
 21
54.8831
 31
0.0
  0
LINE
  8
0
 62
     0
 10
21.3817
 20
54.8831
 30
0.0
 11
21.3817
 21
40.8838
 31
0.0
  0
LINE
  8
0
 62
     0
 10
21.3817
 20
40.8838
 30
0.0
 11
7.38216
 21
40.8838
 31
0.0
  0
LINE
  8
0
 62
     0
 10
7.38216
 20
40.8838
 30
0.0
 11
7.38216
 21
54.8831
 31
0.0
  0
LINE
  8
0
 62
     0
 10
31.1947
 20
54.8831
 30
0.0
 11
45.194
 21
54.8831
 31
0.0
  0
LINE
  8
0
 62
     0
 10
45.194
 20
54.8831
 30
0.0
 11
45.194
 21
40.8838
 31
0.0
  0
LINE
  8
0
 62
     0
 10
45.194
 20
40.8838
 30
0.0
 11
31.1947
 21
40.8838
 31
0.0
  0
LINE
  8
0
 62
     0
 10
31.1947
 20
40.8838
 30
0.0
 11
31.1947
 21
54.8831
 31
0.0
  0
LINE
  8
0
 62
     0
 10
50.2447
 20
54.8831
 30
0.0
 11
64.244
 21
54.8831
 31
0.0
  0
LINE
  8
0
 62
     0
 10
64.244
 20
54.8831
 30
0.0
 11
64.244
 21
40.8838
 31
0.0
  0
LINE
  8
0
 62
     0
 10
64.244
 20
40.8838
 30
0.0
 11
50.2447
 21
40.8838
 31
0.0
  0
LINE
  8
0
 62
     0
 10
50.2447
 20
40.8838
 30
0.0
 11
50.2447
 21
54.8831
 31
0.0
  0
LINE
  8
0
 62
     0
 10
69.2947
 20
54.8831
 30
0.0
 11
83.294
 21
54.8831
 31
0.0
  0
LINE
  8
0
 62
     0
 10
83.294
 20
54.8831
 30
0.0
 11
83.294
 21
40.8838
 31
0.0
  0
LINE
  8
0
 62
     0
 10
83.294
 20
40.8838
 30
0.0
 11
69.2947
 21
40.8838
 31
0.0
  0
LINE
  8
0
 62
     0
 10
69.2947
 20
40.8838
 30
0.0
 11
69.2947
 21
54.8831
 31
0.0
  0
LINE
  8
0
 62
     0
 10
88.3447
 20
54.8831
 30
0.0
 11
102.344
 21
54.8831
 31
0.0
  0
LINE
  8
0
 62
     0
 10
102.344
 20
54.8831
 30
0.0
 11
102.344
 21
40.8838
 31
0.0
  0
LINE
  8
0
 62
     0
 10
102.344
 20
40.8838
 30
0.0
 11
88.3447
 21
40.8838
 31
0.0
  0
LINE
  8
0
 62
     0
 10
88.3447
 20
40.8838
 30
0.0
 11
88.3447
 21
54.8831
 31
0.0
  0
LINE
  8
0
 62
     0
 10
107.395
 20
54.8831
 30
0.0
 11
121.394
 21
54.8831
 31
0.0
  0
LINE
  8
0
 62
     0
 10
121.394
 20
54.8831
 30
0.0
 11
121.394
 21
40.8838
 31
0.0
  0
LINE
  8
0
 62
     0
 10
121.394
 20
40.8838
 30
0.0
 11
107.395
 21
40.8838
 31
0.0
  0
LINE
  8
0
 62
     0
 10
107.395
 20
40.8838
 30
0.0
 11
107.395
 21
54.8831
 31
0.0
  0
LINE
  8
0
 62
     0
 10
126.445
 20
54.8831
 30
0.0
 11
140.444
 21
54.8831
 31
0.0
  0
LINE
  8
0
 62
     0
 10
140.444
 20
54.8831
 30
0.0
 11
140.444
 21
40.8838
 31
0.0
  0
LINE
  8
0
 62
     0
 10
140.444
 20
40.8838
 30
0.0
 11
126.445
 21
40.8838
 31
0.0
  0
LINE
  8
0
 62
     0
 10
126.445
 20
40.8838
 30
0.0
 11
126.445
 21
54.8831
 31
0.0
  0
LINE
  8
0
 62
     0
 10
145.495
 20
54.8831
 30
0.0
 11
159.494
 21
54.8831
 31
0.0
  0
LINE
  8
0
 62
     0
 10
159.494
 20
54.8831
 30
0.0
 11
159.494
 21
40.8838
 31
0.0
  0
LINE
  8
0
 62
     0
 10
159.494
 20
40.8838
 30
0.0
 11
145.495
 21
40.8838
 31
0.0
  0
LINE
  8
0
 62
     0
 10
145.495
 20
40.8838
 30
0.0
 11
145.495
 21
54.8831
 31
0.0
  0
LINE
  8
0
 62
     0
 10
164.545
 20
54.8831
 30
0.0
 11
178.544
 21
54.8831
 31
0.0
  0
LINE
  8
0
 62
     0
 10
178.544
 20
54.8831
 30
0.0
 11
178.544
 21
40.8838
 31
0.0
  0
LINE
  8
0
 62
     0
 10
178.544
 20
40.8838
 30
0.0
 11
164.545
 21
40.8838
 31
0.0
  0
LINE
  8
0
 62
     0
 10
164.545
 20
40.8838
 30
0.0
 11
164.545
 21
54.8831
 31
0.0
  0
LINE
  8
0
 62
     0
 10
183.595
 20
54.8831
 30
0.0
 11
197.594
 21
54.8831
 31
0.0
  0
LINE
  8
0
 62
     0
 10
197.594
 20
54.8831
 30
0.0
 11
197.594
 21
40.8838
 31
0.0
  0
LINE
  8
0
 62
     0
 10
197.594
 20
40.8838
 30
0.0
 11
183.595
 21
40.8838
 31
0.0
  0
LINE
  8
0
 62
     0
 10
183.595
 20
40.8838
 30
0.0
 11
183.595
 21
54.8831
 31
0.0
  0
LINE
  8
0
 62
     0
 10
207.407
 20
54.8831
 30
0.0
 11
221.407
 21
54.8831
 31
0.0
  0
LINE
  8
0
 62
     0
 10
221.407
 20
54.8831
 30
0.0
 11
221.407
 21
40.8838
 31
0.0
  0
LINE
  8
0
 62
     0
 10
221.407
 20
40.8838
 30
0.0
 11
207.407
 21
40.8838
 31
0.0
  0
LINE
  8
0
 62
     0
 10
207.407
 20
40.8838
 30
0.0
 11
207.407
 21
54.8831
 31
0.0
  0
LINE
  8
0
 62
     0
 10
2.61965
 20
73.9331
 30
0.0
 11
16.6192
 21
73.9331
 31
0.0
  0
LINE
  8
0
 62
     0
 10
16.6192
 20
73.9331
 30
0.0
 11
16.6192
 21
59.9338
 31
0.0
  0
LINE
  8
0
 62
     0
 10
16.6192
 20
59.9338
 30
0.0
 11
2.61965
 21
59.9338
 31
0.0
  0
LINE
  8
0
 62
     0
 10
2.61965
 20
59.9338
 30
0.0
 11
2.61965
 21
73.9331
 31
0.0
  0
LINE
  8
0
 62
     0
 10
21.6697
 20
73.9331
 30
0.0
 11
35.669
 21
73.9331
 31
0.0
  0
LINE
  8
0
 62
     0
 10
35.669
 20
73.9331
 30
0.0
 11
35.669
 21
59.9338
 31
0.0
  0
LINE
  8
0
 62
     0
 10
35.669
 20
59.9338
 30
0.0
 11
21.6697
 21
59.9338
 31
0.0
  0
LINE
  8
0
 62
     0
 10
21.6697
 20
59.9338
 30
0.0
 11
21.6697
 21
73.9331
 31
0.0
  0
LINE
  8
0
 62
     0
 10
40.7197
 20
73.9331
 30
0.0
 11
54.719
 21
73.9331
 31
0.0
  0
LINE
  8
0
 62
     0
 10
54.719
 20
73.9331
 30
0.0
 11
54.719
 21
59.9338
 31
0.0
  0
LINE
  8
0
 62
     0
 10
54.719
 20
59.9338
 30
0.0
 11
40.7197
 21
59.9338
 31
0.0
  0
LINE
  8
0
 62
     0
 10
40.7197
 20
59.9338
 30
0.0
 11
40.7197
 21
73.9331
 31
0.0
  0
LINE
  8
0
 62
     0
 10
59.7697
 20
73.9331
 30
0.0
 11
73.769
 21
73.9331
 31
0.0
  0
LINE
  8
0
 62
     0
 10
73.769
 20
73.9331
 30
0.0
 11
73.769
 21
59.9338
 31
0.0
  0
LINE
  8
0
 62
     0
 10
73.769
 20
59.9338
 30
0.0
 11
59.7697
 21
59.9338
 31
0.0
  0
LINE
  8
0
 62
     0
 10
59.7697
 20
59.9338
 30
0.0
 11
59.7697
 21
73.9331
 31
0.0
  0
LINE
  8
0
 62
     0
 10
78.8197
 20
73.9331
 30
0.0
 11
92.819
 21
73.9331
 31
0.0
  0
LINE
  8
0
 62
     0
 10
92.819
 20
73.9331
 30
0.0
 11
92.819
 21
59.9338
 31
0.0
  0
LINE
  8
0
 62
     0
 10
92.819
 20
59.9338
 30
0.0
 11
78.8197
 21
59.9338
 31
0.0
  0
LINE
  8
0
 62
     0
 10
78.8197
 20
59.9338
 30
0.0
 11
78.8197
 21
73.9331
 31
0.0
  0
LINE
  8
0
 62
     0
 10
97.8683
 20
73.9331
 30
0.0
 11
111.869
 21
73.9331
 31
0.0
  0
LINE
  8
0
 62
     0
 10
111.869
 20
73.9331
 30
0.0
 11
111.869
 21
59.9338
 31
0.0
  0
LINE
  8
0
 62
     0
 10
111.869
 20
59.9338
 30
0.0
 11
97.8683
 21
59.9338
 31
0.0
  0
LINE
  8
0
 62
     0
 10
97.8683
 20
59.9338
 30
0.0
 11
97.8683
 21
73.9331
 31
0.0
  0
LINE
  8
0
 62
     0
 10
116.918
 20
73.9331
 30
0.0
 11
130.919
 21
73.9331
 31
0.0
  0
LINE
  8
0
 62
     0
 10
130.919
 20
73.9331
 30
0.0
 11
130.919
 21
59.9338
 31
0.0
  0
LINE
  8
0
 62
     0
 10
130.919
 20
59.9338
 30
0.0
 11
116.918
 21
59.9338
 31
0.0
  0
LINE
  8
0
 62
     0
 10
116.918
 20
59.9338
 30
0.0
 11
116.918
 21
73.9331
 31
0.0
  0
LINE
  8
0
 62
     0
 10
135.97
 20
73.9331
 30
0.0
 11
149.969
 21
73.9331
 31
0.0
  0
LINE
  8
0
 62
     0
 10
149.969
 20
73.9331
 30
0.0
 11
149.969
 21
59.9338
 31
0.0
  0
LINE
  8
0
 62
     0
 10
149.969
 20
59.9338
 30
0.0
 11
135.97
 21
59.9338
 31
0.0
  0
LINE
  8
0
 62
     0
 10
135.97
 20
59.9338
 30
0.0
 11
135.97
 21
73.9331
 31
0.0
  0
LINE
  8
0
 62
     0
 10
155.02
 20
73.9331
 30
0.0
 11
169.019
 21
73.9331
 31
0.0
  0
LINE
  8
0
 62
     0
 10
169.019
 20
73.9331
 30
0.0
 11
169.019
 21
59.9338
 31
0.0
  0
LINE
  8
0
 62
     0
 10
169.019
 20
59.9338
 30
0.0
 11
155.02
 21
59.9338
 31
0.0
  0
LINE
  8
0
 62
     0
 10
155.02
 20
59.9338
 30
0.0
 11
155.02
 21
73.9331
 31
0.0
  0
LINE
  8
0
 62
     0
 10
174.07
 20
73.9331
 30
0.0
 11
188.069
 21
73.9331
 31
0.0
  0
LINE
  8
0
 62
     0
 10
188.069
 20
73.9331
 30
0.0
 11
188.069
 21
59.9338
 31
0.0
  0
LINE
  8
0
 62
     0
 10
188.069
 20
59.9338
 30
0.0
 11
174.07
 21
59.9338
 31
0.0
  0
LINE
  8
0
 62
     0
 10
174.07
 20
59.9338
 30
0.0
 11
174.07
 21
73.9331
 31
0.0
  0
LINE
  8
0
 62
     0
 10
193.12
 20
73.9331
 30
0.0
 11
207.119
 21
73.9331
 31
0.0
  0
LINE
  8
0
 62
     0
 10
207.119
 20
73.9331
 30
0.0
 11
207.119
 21
59.9338
 31
0.0
  0
LINE
  8
0
 62
     0
 10
207.119
 20
59.9338
 30
0.0
 11
193.12
 21
59.9338
 31
0.0
  0
LINE
  8
0
 62
     0
 10
193.12
 20
59.9338
 30
0.0
 11
193.12
 21
73.9331
 31
0.0
  0
LINE
  8
0
 62
     0
 10
212.17
 20
73.9331
 30
0.0
 11
226.169
 21
73.9331
 31
0.0
  0
LINE
  8
0
 62
     0
 10
226.169
 20
73.9331
 30
0.0
 11
226.169
 21
59.9338
 31
0.0
  0
LINE
  8
0
 62
     0
 10
226.169
 20
59.9338
 30
0.0
 11
212.17
 21
59.9338
 31
0.0
  0
LINE
  8
0
 62
     0
 10
212.17
 20
59.9338
 30
0.0
 11
212.17
 21
73.9331
 31
0.0
  0
ENDSEC
  0
EOF
