<?xml version="1.0"?>
<!-- Generated by SVGo -->
<svg width="238.602mm" height="86.202mm"
     viewBox="0.000 0.000 238.602 86.202"
     xmlns="http://www.w3.org/2000/svg" 
     xmlns:xlink="http://www.w3.org/1999/xlink">
<polygon points="233.602,81.202 5.001,81.202 5.001,5.001 233.602,5.001" style="fill:none;stroke-width:0.050000mm;stroke:black"/>
<polygon points="119.444,64.676 119.444,69.376 117.919,69.376 117.919,66.146 111.169,66.146 111.169,69.376 110.344,69.376 110.344,72.176 111.169,72.176 111.169,78.446 112.894,78.446 112.894,79.646 116.194,79.646 116.194,78.446 117.919,78.446 117.919,73.976 119.444,73.976 119.444,78.676 133.444,78.676 133.444,73.976 134.969,73.976 134.969,78.446 136.694,78.446 136.694,79.646 139.994,79.646 139.994,78.446 141.719,78.446 141.719,72.176 142.544,72.176 142.544,69.376 141.719,69.376 141.719,66.146 134.969,66.146 134.969,69.376 133.444,69.376 133.444,64.676" style="fill:none;stroke-width:0.050000mm;stroke:black"/>
<polygon points="9.907,64.676 9.907,78.676 23.907,78.676 23.907,64.676" style="fill:none;stroke-width:0.050000mm;stroke:black"/>
<polygon points="33.719,64.676 33.719,78.676 47.719,78.676 47.719,64.676" style="fill:none;stroke-width:0.050000mm;stroke:black"/>
<polygon points="57.532,64.676 57.532,78.676 71.532,78.676 71.532,64.676" style="fill:none;stroke-width:0.050000mm;stroke:black"/>
<polygon points="81.344,64.676 81.344,78.676 95.344,78.676 95.344,64.676" style="fill:none;stroke-width:0.050000mm;stroke:black"/>
<polygon points="157.544,64.676 157.544,78.676 171.544,78.676 171.544,64.676" style="fill:none;stroke-width:0.050000mm;stroke:black"/>
<polygon points="178.976,64.676 178.976,78.676 192.976,78.676 192.976,64.676" style="fill:none;stroke-width:0.050000mm;stroke:black"/>
<polygon points="198.026,64.676 198.026,78.676 212.026,78.676 212.026,64.676" style="fill:none;stroke-width:0.050000mm;stroke:black"/>
<polygon points="217.076,64.676 217.076,78.676 231.076,78.676 231.076,64.676" style="fill:none;stroke-width:0.050000mm;stroke:black"/>
<polygon points="17.051,45.626 17.051,50.326 15.526,50.326 15.526,47.096 8.776,47.096 8.776,50.326 7.950,50.326 7.950,53.126 8.776,53.126 8.776,59.395 10.501,59.395 10.501,60.596 13.801,60.596 13.801,59.395 15.526,59.395 15.526,54.926 17.051,54.926 17.051,59.626 31.051,59.626 31.051,54.926 32.576,54.926 32.576,59.395 34.301,59.395 34.301,60.596 37.601,60.596 37.601,59.395 39.326,59.395 39.326,53.126 40.151,53.126 40.151,50.326 39.326,50.326 39.326,47.096 32.576,47.096 32.576,50.326 31.051,50.326 31.051,45.626" style="fill:none;stroke-width:0.050000mm;stroke:black"/>
<polygon points="45.626,45.626 45.626,59.626 59.626,59.626 59.626,45.626" style="fill:none;stroke-width:0.050000mm;stroke:black"/>
<polygon points="64.676,45.626 64.676,59.626 78.676,59.626 78.676,45.626" style="fill:none;stroke-width:0.050000mm;stroke:black"/>
<polygon points="83.726,45.626 83.726,59.626 97.726,59.626 97.726,45.626" style="fill:none;stroke-width:0.050000mm;stroke:black"/>
<polygon points="102.775,45.626 102.775,59.626 116.775,59.626 116.775,45.626" style="fill:none;stroke-width:0.050000mm;stroke:black"/>
<polygon points="121.825,45.626 121.825,59.626 135.826,59.626 135.826,45.626" style="fill:none;stroke-width:0.050000mm;stroke:black"/>
<polygon points="140.876,45.626 140.876,59.626 154.876,59.626 154.876,45.626" style="fill:none;stroke-width:0.050000mm;stroke:black"/>
<polygon points="159.926,45.626 159.926,59.626 173.926,59.626 173.926,45.626" style="fill:none;stroke-width:0.050000mm;stroke:black"/>
<polygon points="178.976,45.626 178.976,59.626 192.976,59.626 192.976,45.626" style="fill:none;stroke-width:0.050000mm;stroke:black"/>
<polygon points="198.026,45.626 198.026,59.626 212.026,59.626 212.026,45.626" style="fill:none;stroke-width:0.050000mm;stroke:black"/>
<polygon points="217.076,45.626 217.076,59.626 231.076,59.626 231.076,45.626" style="fill:none;stroke-width:0.050000mm;stroke:black"/>
<polygon points="12.288,26.576 12.288,40.576 26.288,40.576 26.288,26.576" style="fill:none;stroke-width:0.050000mm;stroke:black"/>
<polygon points="36.101,26.576 36.101,40.576 50.101,40.576 50.101,26.576" style="fill:none;stroke-width:0.050000mm;stroke:black"/>
<polygon points="55.151,26.576 55.151,40.576 69.151,40.576 69.151,26.576" style="fill:none;stroke-width:0.050000mm;stroke:black"/>
<polygon points="74.201,26.576 74.201,40.576 88.201,40.576 88.201,26.576" style="fill:none;stroke-width:0.050000mm;stroke:black"/>
<polygon points="93.251,26.576 93.251,40.576 107.251,40.576 107.251,26.576" style="fill:none;stroke-width:0.050000mm;stroke:black"/>
<polygon points="112.301,26.576 112.301,40.576 126.301,40.576 126.301,26.576" style="fill:none;stroke-width:0.050000mm;stroke:black"/>
<polygon points="131.351,26.576 131.351,40.576 145.351,40.576 145.351,26.576" style="fill:none;stroke-width:0.050000mm;stroke:black"/>
<polygon points="150.401,26.576 150.401,40.576 164.401,40.576 164.401,26.576" style="fill:none;stroke-width:0.050000mm;stroke:black"/>
<polygon points="169.451,26.576 169.451,40.576 183.451,40.576 183.451,26.576" style="fill:none;stroke-width:0.050000mm;stroke:black"/>
<polygon points="188.501,26.576 188.501,40.576 202.501,40.576 202.501,26.576" style="fill:none;stroke-width:0.050000mm;stroke:black"/>
<polygon points="212.313,26.576 212.313,40.576 226.313,40.576 226.313,26.576" style="fill:none;stroke-width:0.050000mm;stroke:black"/>
<polygon points="7.526,7.526 7.526,21.526 21.526,21.526 21.526,7.526" style="fill:none;stroke-width:0.050000mm;stroke:black"/>
<polygon points="26.576,7.526 26.576,21.526 40.576,21.526 40.576,7.526" style="fill:none;stroke-width:0.050000mm;stroke:black"/>
<polygon points="45.626,7.526 45.626,21.526 59.626,21.526 59.626,7.526" style="fill:none;stroke-width:0.050000mm;stroke:black"/>
<polygon points="64.676,7.526 64.676,21.526 78.676,21.526 78.676,7.526" style="fill:none;stroke-width:0.050000mm;stroke:black"/>
<polygon points="83.726,7.526 83.726,21.526 97.726,21.526 97.726,7.526" style="fill:none;stroke-width:0.050000mm;stroke:black"/>
<polygon points="102.775,7.526 102.775,21.526 116.775,21.526 116.775,7.526" style="fill:none;stroke-width:0.050000mm;stroke:black"/>
<polygon points="121.825,7.526 121.825,21.526 135.826,21.526 135.826,7.526" style="fill:none;stroke-width:0.050000mm;stroke:black"/>
<polygon points="140.876,7.526 140.876,21.526 154.876,21.526 154.876,7.526" style="fill:none;stroke-width:0.050000mm;stroke:black"/>
<polygon points="159.926,7.526 159.926,21.526 173.926,21.526 173.926,7.526" style="fill:none;stroke-width:0.050000mm;stroke:black"/>
<polygon points="178.976,7.526 178.976,21.526 192.976,21.526 192.976,7.526" style="fill:none;stroke-width:0.050000mm;stroke:black"/>
<polygon points="198.026,7.526 198.026,21.526 212.026,21.526 212.026,7.526" style="fill:none;stroke-width:0.050000mm;stroke:black"/>
<polygon points="217.076,7.526 217.076,21.526 231.076,21.526 231.076,7.526" style="fill:none;stroke-width:0.050000mm;stroke:black"/>
</svg>
