<?xml version="1.0"?>
<!-- Generated by SVGo -->
<svg width="295.752mm" height="105.252mm"
     viewBox="0.000 0.000 295.752 105.252"
     xmlns="http://www.w3.org/2000/svg" 
     xmlns:xlink="http://www.w3.org/1999/xlink">
<polygon points="290.564,59.326 287.063,59.326 286.290,59.448 285.594,59.803 285.041,60.356 284.686,61.053 284.564,61.825 284.686,62.599 285.041,63.295 285.594,63.849 286.290,64.204 287.063,64.326 290.564,64.326 290.564,100.090 5.189,100.090 5.189,64.326 8.689,64.326 9.462,64.204 10.158,63.849 10.711,63.295 11.066,62.599 11.189,61.826 11.066,61.053 10.711,60.356 10.158,59.803 9.462,59.448 8.690,59.326 5.189,59.326 5.189,5.163 290.564,5.163" style="fill:none;stroke-width:0.050000mm;stroke:black"/>
<polygon points="138.495,83.725 138.495,88.425 98.870,88.425 98.870,85.195 97.145,85.195 97.145,84.275 93.845,84.275 93.845,85.195 92.120,85.195 92.120,88.425 91.294,88.425 91.294,91.225 92.120,91.225 92.120,97.495 93.845,97.495 93.845,98.475 97.145,98.475 97.145,97.495 98.870,97.495 98.870,93.025 138.495,93.025 138.495,97.725 152.495,97.725 152.495,93.025 192.120,93.025 192.120,97.495 193.845,97.495 193.845,98.475 197.144,98.475 197.144,97.495 198.870,97.495 198.870,91.225 199.695,91.225 199.695,88.425 198.870,88.425 198.870,85.195 197.144,85.195 197.144,84.275 193.845,84.275 193.845,85.195 192.120,85.195 192.120,88.425 152.495,88.425 152.495,83.725" style="fill:none;stroke-width:0.050000mm;stroke:black"/>
<polygon points="274.225,83.725 274.225,97.725 288.225,97.725 288.225,83.725" style="fill:none;stroke-width:0.050000mm;stroke:black"/>
<polygon points="245.650,83.725 245.650,97.725 259.650,97.725 259.650,83.725" style="fill:none;stroke-width:0.050000mm;stroke:black"/>
<polygon points="226.601,83.725 226.601,97.725 240.601,97.725 240.601,83.725" style="fill:none;stroke-width:0.050000mm;stroke:black"/>
<polygon points="207.550,83.725 207.550,97.725 221.550,97.725 221.550,83.725" style="fill:none;stroke-width:0.050000mm;stroke:black"/>
<polygon points="67.056,83.725 67.056,97.725 81.056,97.725 81.056,83.725" style="fill:none;stroke-width:0.050000mm;stroke:black"/>
<polygon points="45.626,83.725 45.626,97.725 59.626,97.725 59.626,83.725" style="fill:none;stroke-width:0.050000mm;stroke:black"/>
<polygon points="26.576,83.725 26.576,97.725 40.576,97.725 40.576,83.725" style="fill:none;stroke-width:0.050000mm;stroke:black"/>
<polygon points="7.526,83.725 7.526,97.725 21.526,97.725 21.526,83.725" style="fill:none;stroke-width:0.050000mm;stroke:black"/>
<polygon points="257.556,64.675 257.556,69.376 256.031,69.376 256.031,66.145 254.306,66.145 254.306,65.225 251.007,65.225 251.007,66.145 249.281,66.145 249.281,69.376 248.457,69.376 248.457,72.175 249.281,72.175 249.281,78.445 251.007,78.445 251.007,79.425 254.306,79.425 254.306,78.445 256.031,78.445 256.031,73.975 257.556,73.975 257.556,78.675 271.556,78.675 271.556,73.975 273.081,73.975 273.081,78.445 274.806,78.445 274.806,79.425 278.106,79.425 278.106,78.445 279.831,78.445 279.831,72.175 280.656,72.175 280.656,69.376 279.831,69.376 279.831,66.145 278.106,66.145 278.106,65.225 274.806,65.225 274.806,66.145 273.081,66.145 273.081,69.376 271.556,69.376 271.556,64.675" style="fill:none;stroke-width:0.050000mm;stroke:black"/>
<polygon points="19.431,64.675 19.431,69.376 17.907,69.376 17.907,66.145 16.181,66.145 16.181,65.225 12.882,65.225 12.882,66.145 11.157,66.145 11.157,69.376 10.332,69.376 10.332,72.175 11.157,72.175 11.157,78.445 12.882,78.445 12.882,79.425 16.181,79.425 16.181,78.445 17.907,78.445 17.907,73.975 19.431,73.975 19.431,78.675 33.431,78.675 33.431,73.975 34.957,73.975 34.957,78.445 36.681,78.445 36.681,79.425 39.981,79.425 39.981,78.445 41.707,78.445 41.707,72.175 42.532,72.175 42.532,69.376 41.707,69.376 41.707,66.145 39.981,66.145 39.981,65.225 36.681,65.225 36.681,66.145 34.957,66.145 34.957,69.376 33.431,69.376 33.431,64.675" style="fill:none;stroke-width:0.050000mm;stroke:black"/>
<polygon points="221.839,64.675 221.839,78.675 235.839,78.675 235.839,64.675" style="fill:none;stroke-width:0.050000mm;stroke:black"/>
<polygon points="202.788,64.675 202.788,78.675 216.788,78.675 216.788,64.675" style="fill:none;stroke-width:0.050000mm;stroke:black"/>
<polygon points="183.739,64.675 183.739,78.675 197.739,78.675 197.739,64.675" style="fill:none;stroke-width:0.050000mm;stroke:black"/>
<polygon points="164.689,64.675 164.689,78.675 178.689,78.675 178.689,64.675" style="fill:none;stroke-width:0.050000mm;stroke:black"/>
<polygon points="145.638,64.675 145.638,78.675 159.638,78.675 159.638,64.675" style="fill:none;stroke-width:0.050000mm;stroke:black"/>
<polygon points="126.589,64.675 126.589,78.675 140.589,78.675 140.589,64.675" style="fill:none;stroke-width:0.050000mm;stroke:black"/>
<polygon points="107.538,64.675 107.538,78.675 121.538,78.675 121.538,64.675" style="fill:none;stroke-width:0.050000mm;stroke:black"/>
<polygon points="88.489,64.675 88.489,78.675 102.489,78.675 102.489,64.675" style="fill:none;stroke-width:0.050000mm;stroke:black"/>
<polygon points="69.439,64.675 69.439,78.675 83.439,78.675 83.439,64.675" style="fill:none;stroke-width:0.050000mm;stroke:black"/>
<polygon points="50.389,64.675 50.389,78.675 64.389,78.675 64.389,64.675" style="fill:none;stroke-width:0.050000mm;stroke:black"/>
<polygon points="262.318,45.626 262.318,50.325 260.794,50.325 260.794,47.096 259.068,47.096 259.068,46.175 255.769,46.175 255.769,47.096 254.044,47.096 254.044,50.325 253.220,50.325 253.220,53.126 254.044,53.126 254.044,59.395 255.769,59.395 255.769,60.376 259.068,60.376 259.068,59.395 260.794,59.395 260.794,54.925 262.318,54.925 262.318,59.626 276.319,59.626 276.319,54.925 277.844,54.925 277.844,59.395 279.569,59.395 279.569,60.376 282.869,60.376 282.869,59.395 284.594,59.395 284.594,53.126 285.419,53.126 285.419,50.325 284.594,50.325 284.594,47.096 282.869,47.096 282.869,46.175 279.569,46.175 279.569,47.096 277.844,47.096 277.844,50.325 276.319,50.325 276.319,45.626" style="fill:none;stroke-width:0.050000mm;stroke:black"/>
<polygon points="231.364,45.626 231.364,59.626 245.364,59.626 245.364,45.626" style="fill:none;stroke-width:0.050000mm;stroke:black"/>
<polygon points="212.314,45.626 212.314,59.626 226.314,59.626 226.314,45.626" style="fill:none;stroke-width:0.050000mm;stroke:black"/>
<polygon points="193.263,45.626 193.263,59.626 207.263,59.626 207.263,45.626" style="fill:none;stroke-width:0.050000mm;stroke:black"/>
<polygon points="174.214,45.626 174.214,59.626 188.214,59.626 188.214,45.626" style="fill:none;stroke-width:0.050000mm;stroke:black"/>
<polygon points="155.163,45.626 155.163,59.626 169.163,59.626 169.163,45.626" style="fill:none;stroke-width:0.050000mm;stroke:black"/>
<polygon points="136.113,45.626 136.113,59.626 150.113,59.626 150.113,45.626" style="fill:none;stroke-width:0.050000mm;stroke:black"/>
<polygon points="117.062,45.626 117.062,59.626 131.064,59.626 131.064,45.626" style="fill:none;stroke-width:0.050000mm;stroke:black"/>
<polygon points="98.013,45.626 98.013,59.626 112.013,59.626 112.013,45.626" style="fill:none;stroke-width:0.050000mm;stroke:black"/>
<polygon points="78.963,45.626 78.963,59.626 92.963,59.626 92.963,45.626" style="fill:none;stroke-width:0.050000mm;stroke:black"/>
<polygon points="59.912,45.626 59.912,59.626 73.913,59.626 73.913,45.626" style="fill:none;stroke-width:0.050000mm;stroke:black"/>
<polygon points="40.864,45.626 40.864,59.626 54.864,59.626 54.864,45.626" style="fill:none;stroke-width:0.050000mm;stroke:black"/>
<polygon points="14.670,45.626 14.670,59.626 28.670,59.626 28.670,45.626" style="fill:none;stroke-width:0.050000mm;stroke:black"/>
<polygon points="132.804,50.248 132.107,50.603 131.554,51.157 131.197,51.853 131.077,52.627 131.197,53.398 131.554,54.096 132.107,54.648 132.804,55.004 133.577,55.127 134.349,55.004 135.046,54.648 135.599,54.096 135.953,53.398 136.077,52.627 135.953,51.853 135.599,51.157 135.046,50.603 134.349,50.248 133.577,50.127" style="fill:none;stroke-width:0.050000mm;stroke:black"/>
<polygon points="269.463,26.575 269.463,40.575 283.463,40.575 283.463,26.575" style="fill:none;stroke-width:0.050000mm;stroke:black"/>
<polygon points="245.650,26.575 245.650,40.575 259.650,40.575 259.650,26.575" style="fill:none;stroke-width:0.050000mm;stroke:black"/>
<polygon points="226.601,26.575 226.601,40.575 240.601,40.575 240.601,26.575" style="fill:none;stroke-width:0.050000mm;stroke:black"/>
<polygon points="207.550,26.575 207.550,40.575 221.550,40.575 221.550,26.575" style="fill:none;stroke-width:0.050000mm;stroke:black"/>
<polygon points="188.501,26.575 188.501,40.575 202.501,40.575 202.501,26.575" style="fill:none;stroke-width:0.050000mm;stroke:black"/>
<polygon points="169.451,26.575 169.451,40.575 183.451,40.575 183.451,26.575" style="fill:none;stroke-width:0.050000mm;stroke:black"/>
<polygon points="150.400,26.575 150.400,40.575 164.400,40.575 164.400,26.575" style="fill:none;stroke-width:0.050000mm;stroke:black"/>
<polygon points="131.351,26.575 131.351,40.575 145.351,40.575 145.351,26.575" style="fill:none;stroke-width:0.050000mm;stroke:black"/>
<polygon points="112.300,26.575 112.300,40.575 126.300,40.575 126.300,26.575" style="fill:none;stroke-width:0.050000mm;stroke:black"/>
<polygon points="93.251,26.575 93.251,40.575 107.251,40.575 107.251,26.575" style="fill:none;stroke-width:0.050000mm;stroke:black"/>
<polygon points="74.201,26.575 74.201,40.575 88.201,40.575 88.201,26.575" style="fill:none;stroke-width:0.050000mm;stroke:black"/>
<polygon points="55.151,26.575 55.151,40.575 69.151,40.575 69.151,26.575" style="fill:none;stroke-width:0.050000mm;stroke:black"/>
<polygon points="36.100,26.575 36.100,40.575 50.100,40.575 50.100,26.575" style="fill:none;stroke-width:0.050000mm;stroke:black"/>
<polygon points="12.289,26.575 12.289,40.575 26.289,40.575 26.289,26.575" style="fill:none;stroke-width:0.050000mm;stroke:black"/>
<polygon points="264.653,30.848 263.956,31.203 263.403,31.756 263.048,32.453 262.926,33.227 263.048,33.998 263.403,34.695 263.956,35.248 264.653,35.603 265.426,35.727 266.198,35.603 266.895,35.248 267.448,34.695 267.803,33.998 267.926,33.227 267.803,32.453 267.448,31.756 266.895,31.203 266.198,30.848 265.426,30.726" style="fill:none;stroke-width:0.050000mm;stroke:black"/>
<polygon points="29.803,30.848 29.107,31.203 28.553,31.756 28.199,32.453 28.077,33.227 28.199,33.998 28.553,34.695 29.107,35.248 29.803,35.603 30.577,35.727 31.349,35.603 32.046,35.248 32.597,34.695 32.954,33.998 33.076,33.227 32.954,32.453 32.597,31.756 32.046,31.203 31.349,30.848 30.577,30.726" style="fill:none;stroke-width:0.050000mm;stroke:black"/>
<polygon points="264.700,7.525 264.700,12.225 263.175,12.225 263.175,8.995 261.450,8.995 261.450,8.075 258.150,8.075 258.150,8.995 256.425,8.995 256.425,12.225 255.601,12.225 255.601,15.025 256.425,15.025 256.425,21.296 258.150,21.296 258.150,22.275 261.450,22.275 261.450,21.296 263.175,21.296 263.175,16.825 264.700,16.825 264.700,21.525 278.700,21.525 278.700,16.825 280.225,16.825 280.225,21.296 281.950,21.296 281.950,22.275 285.250,22.275 285.250,21.296 286.975,21.296 286.975,15.025 287.800,15.025 287.800,12.225 286.975,12.225 286.975,8.995 285.250,8.995 285.250,8.075 281.950,8.075 281.950,8.995 280.225,8.995 280.225,12.225 278.700,12.225 278.700,7.525" style="fill:none;stroke-width:0.050000mm;stroke:black"/>
<polygon points="236.126,7.525 236.126,21.525 250.126,21.525 250.126,7.525" style="fill:none;stroke-width:0.050000mm;stroke:black"/>
<polygon points="217.076,7.525 217.076,21.525 231.076,21.525 231.076,7.525" style="fill:none;stroke-width:0.050000mm;stroke:black"/>
<polygon points="198.025,7.525 198.025,21.525 212.025,21.525 212.025,7.525" style="fill:none;stroke-width:0.050000mm;stroke:black"/>
<polygon points="178.976,7.525 178.976,21.525 192.976,21.525 192.976,7.525" style="fill:none;stroke-width:0.050000mm;stroke:black"/>
<polygon points="159.925,7.525 159.925,21.525 173.925,21.525 173.925,7.525" style="fill:none;stroke-width:0.050000mm;stroke:black"/>
<polygon points="140.876,7.525 140.876,21.525 154.876,21.525 154.876,7.525" style="fill:none;stroke-width:0.050000mm;stroke:black"/>
<polygon points="121.826,7.525 121.826,21.525 135.826,21.525 135.826,7.525" style="fill:none;stroke-width:0.050000mm;stroke:black"/>
<polygon points="102.776,7.525 102.776,21.525 116.776,21.525 116.776,7.525" style="fill:none;stroke-width:0.050000mm;stroke:black"/>
<polygon points="83.726,7.525 83.726,21.525 97.726,21.525 97.726,7.525" style="fill:none;stroke-width:0.050000mm;stroke:black"/>
<polygon points="64.675,7.525 64.675,21.525 78.675,21.525 78.675,7.525" style="fill:none;stroke-width:0.050000mm;stroke:black"/>
<polygon points="45.626,7.525 45.626,21.525 59.626,21.525 59.626,7.525" style="fill:none;stroke-width:0.050000mm;stroke:black"/>
<polygon points="26.576,7.525 26.576,21.525 40.576,21.525 40.576,7.525" style="fill:none;stroke-width:0.050000mm;stroke:black"/>
<polygon points="7.526,7.525 7.526,21.525 21.526,21.525 21.526,7.525" style="fill:none;stroke-width:0.050000mm;stroke:black"/>
</svg>
